<svg xmlns="http://www.w3.org/2000/svg" width="521.085" height="640.041" viewBox="0 0 521.085 640.041">
  <path id="icon" d="M494.782,340.02c-.8-81.025,66.084-119.907,69.072-121.832-37.595-54.993-96.167-62.552-117.037-63.4-49.843-5.032-97.242,29.362-122.565,29.362-25.253,0-64.277-28.607-105.6-27.85-54.32.8-104.4,31.594-132.4,80.245C29.81,334.457,71.81,479.58,126.816,558.976c26.87,38.882,58.914,82.56,101,81,40.512-1.594,55.843-26.244,104.848-26.244s62.753,26.245,105.64,25.406c43.606-.8,71.232-39.638,97.925-78.65a352.816,352.816,0,0,0,44.316-90.994c-.969-.437-85.029-32.634-85.879-129.439l.118-.035ZM414.23,102.178C436.553,75.1,451.636,37.5,447.514-.024c-32.162,1.311-71.163,21.437-94.253,48.485-20.729,24.012-38.836,62.28-33.993,99.036,35.918,2.8,72.591-18.248,94.926-45.272l.036-.047Z" transform="translate(-59.457 0.024)" fill="#fff" fill-rule="evenodd"/>
</svg>
